<svg width="31" height="31" viewBox="0 0 31 31" fill="none" xmlns="http://www.w3.org/2000/svg">
<path d="M28.1955 1.22803H2.80453C2.38703 1.22803 1.98662 1.39388 1.69139 1.68911C1.39617 1.98433 1.23032 2.38474 1.23032 2.80225V28.1956C1.23032 28.6131 1.39617 29.0135 1.69139 29.3087C1.98662 29.604 2.38703 29.7698 2.80453 29.7698H16.4688V18.7188H12.7536V14.4103H16.4688V11.2328C16.4688 7.5467 18.7211 5.53897 22.01 5.53897C23.1199 5.53501 24.2291 5.5916 25.3328 5.7085V9.5617H23.0587C21.2689 9.5617 20.9226 10.4118 20.9226 11.659V14.4103H25.1875L24.6329 18.7188H20.9226V29.7722H28.1882C28.6055 29.7716 29.0056 29.6055 29.3006 29.3105C29.5957 29.0154 29.7618 28.6153 29.7624 28.198V2.80467C29.7631 2.388 29.5985 1.98806 29.3048 1.69252C29.0111 1.39699 28.6121 1.22995 28.1955 1.22803Z" fill="#F9AE4A"/>
</svg>
