<svg width="31" height="31" viewBox="0 0 31 31" fill="none" xmlns="http://www.w3.org/2000/svg">
<path d="M10.075 28.4165H20.925C25.0583 28.4165 28.4166 25.0582 28.4166 20.9248V10.0748C28.4166 8.08792 27.6273 6.18239 26.2224 4.77743C24.8174 3.37247 22.9119 2.58317 20.925 2.58317H10.075C5.94165 2.58317 2.58331 5.9415 2.58331 10.0748V20.9248C2.58331 22.9118 3.37261 24.8173 4.77757 26.2222C6.18253 27.6272 8.08807 28.4165 10.075 28.4165ZM9.81665 25.8332C8.58339 25.8332 7.40064 25.3433 6.5286 24.4712C5.65656 23.5992 5.16665 22.4164 5.16665 21.1832V9.8165C5.16665 7.24609 7.24623 5.1665 9.81665 5.1665H21.1833C22.4166 5.1665 23.5993 5.65641 24.4714 6.52846C25.3434 7.4005 25.8333 8.58325 25.8333 9.8165V21.1832C25.8333 23.7536 23.7537 25.8332 21.1833 25.8332H9.81665ZM22.2812 23.8957C22.7094 23.8957 23.1201 23.7256 23.4229 23.4228C23.7257 23.12 23.8958 22.7093 23.8958 22.2811C23.8958 21.8529 23.7257 21.4422 23.4229 21.1394C23.1201 20.8366 22.7094 20.6665 22.2812 20.6665C21.853 20.6665 21.4423 20.8366 21.1395 21.1394C20.8368 21.4422 20.6666 21.8529 20.6666 22.2811C20.6666 22.7093 20.8368 23.12 21.1395 23.4228C21.4423 23.7256 21.853 23.8957 22.2812 23.8957ZM15.5 21.9582C17.2128 21.9582 18.8555 21.2777 20.0667 20.0666C21.2779 18.8554 21.9583 17.2127 21.9583 15.4998C21.9583 13.787 21.2779 12.1443 20.0667 10.9331C18.8555 9.72193 17.2128 9.0415 15.5 9.0415C13.7871 9.0415 12.1444 9.72193 10.9332 10.9331C9.72208 12.1443 9.04165 13.787 9.04165 15.4998C9.04165 17.2127 9.72208 18.8554 10.9332 20.0666C12.1444 21.2777 13.7871 21.9582 15.5 21.9582ZM15.5 19.3748C14.4723 19.3748 13.4866 18.9666 12.7599 18.2399C12.0332 17.5132 11.625 16.5276 11.625 15.4998C11.625 14.4721 12.0332 13.4865 12.7599 12.7598C13.4866 12.0331 14.4723 11.6248 15.5 11.6248C16.5277 11.6248 17.5133 12.0331 18.24 12.7598C18.9667 13.4865 19.375 14.4721 19.375 15.4998C19.375 16.5276 18.9667 17.5132 18.24 18.2399C17.5133 18.9666 16.5277 19.3748 15.5 19.3748Z" fill="#F9AE4A"/>
</svg>
