<svg width="31" height="31" viewBox="0 0 31 31" fill="none" xmlns="http://www.w3.org/2000/svg">
<path d="M11.6766 27.8227C12.9166 28.1972 14.1696 28.4168 15.5 28.4168C18.9257 28.4168 22.2111 27.056 24.6334 24.6336C27.0558 22.2113 28.4166 18.9259 28.4166 15.5002C28.4166 13.8039 28.0826 12.1243 27.4334 10.5572C26.7843 8.99005 25.8329 7.56612 24.6334 6.3667C23.434 5.16728 22.0101 4.21584 20.443 3.56672C18.8759 2.9176 17.1962 2.5835 15.5 2.5835C13.8037 2.5835 12.1241 2.9176 10.557 3.56672C8.98986 4.21584 7.56594 5.16728 6.36652 6.3667C3.94417 8.78905 2.58331 12.0745 2.58331 15.5002C2.58331 20.9897 6.03206 25.7043 10.9016 27.5643C10.7854 26.5568 10.6691 24.8906 10.9016 23.741L12.3871 17.3602C12.3871 17.3602 12.0125 16.611 12.0125 15.4227C12.0125 13.6402 13.1233 12.3097 14.3891 12.3097C15.5 12.3097 16.0166 13.1235 16.0166 14.1697C16.0166 15.2806 15.2804 16.8693 14.9058 18.3935C14.6862 19.6593 15.5775 20.7702 16.8691 20.7702C19.1683 20.7702 20.9508 18.316 20.9508 14.8543C20.9508 11.7543 18.7291 9.636 15.5387 9.636C11.8962 9.636 9.75206 12.3485 9.75206 15.2031C9.75206 16.3139 10.1137 17.4377 10.7079 18.1739C10.8241 18.2514 10.8241 18.3547 10.7854 18.5485L10.4108 19.9564C10.4108 20.176 10.2687 20.2535 10.0491 20.0985C8.39581 19.3752 7.43998 17.0243 7.43998 15.1256C7.43998 11.0439 10.3333 7.33683 15.9133 7.33683C20.3566 7.33683 23.8183 10.5272 23.8183 14.7639C23.8183 19.2072 21.0671 22.7722 17.1275 22.7722C15.8746 22.7722 14.6475 22.1006 14.2083 21.3127L13.3429 24.3739C13.0458 25.4847 12.2321 26.9702 11.6766 27.8614V27.8227Z" fill="#F9AE4A"/>
</svg>
