<svg width="164" height="164" viewBox="0 0 164 164" fill="none" xmlns="http://www.w3.org/2000/svg">
<circle cx="82" cy="82" r="80" fill="white" stroke="#DB9807" stroke-width="4"/>
<path fill-rule="evenodd" clip-rule="evenodd" d="M88.8737 59.508C88.3217 57.2913 87.2115 55.2528 85.6488 53.5866C84.086 51.9204 82.1228 50.6818 79.946 49.989C80.9178 47.8223 83.0326 46.3785 85.8079 46.3785C86.7251 46.3785 87.6048 46.0141 88.2533 45.3655C88.9019 44.717 89.2662 43.8373 89.2662 42.9201C89.2662 42.0029 88.9019 41.1233 88.2533 40.4747C87.6048 39.8262 86.7251 39.4618 85.8079 39.4618C79.0918 39.4618 74.098 43.8936 72.7856 49.7313C70.4954 50.2793 68.3915 51.425 66.6885 53.0513C64.698 52.7823 62.6956 52.6097 60.6883 52.5343C58.9073 52.4703 56.8669 52.8058 55.0391 54.0179C50.7629 56.8538 42.7292 64.6748 42.7292 82.3693C42.7292 92.7789 43.1113 99.7613 43.5177 104.243C44.0364 109.972 48.5305 114.105 54.0812 114.56C59.7528 115.023 69.1024 115.542 82.526 115.542C95.9408 115.542 105.271 115.023 110.936 114.56C116.483 114.105 120.972 109.974 121.493 104.248C121.858 100.211 122.205 94.145 122.271 85.3712C122.292 82.4973 121.073 79.6753 118.735 77.787C114.09 74.0348 102.871 65.5999 88.8737 59.508ZM88.5798 66.9607C87.5066 70.2513 85.1985 72.9971 82.1414 74.62C79.0843 76.243 75.5168 76.6165 72.1899 75.6619C68.863 74.7073 66.0362 72.4991 64.3047 69.5022C62.5733 66.5053 62.0721 62.9535 62.9068 59.5945C62.0861 59.5253 61.2641 59.4763 60.441 59.4475C59.6664 59.4198 59.1649 59.5806 58.8623 59.7812C56.5366 61.3254 50.6401 66.3451 49.7565 79.0684C60.6678 79.5074 71.5868 79.7311 82.5069 79.7393C91.4355 79.7353 100.363 79.5796 109.287 79.2724C104.275 75.6377 97.0216 70.9015 88.5798 66.9607ZM107.793 86.2409C110.312 86.1609 112.831 86.0669 115.349 85.9591C115.33 88.1728 115.288 90.3862 115.223 92.5991L115.033 92.6077C104.197 93.0624 93.3524 93.293 82.5069 93.2994C71.6615 93.293 60.8173 93.0624 49.9813 92.6077L49.7894 92.5991C49.7289 90.6071 49.6856 88.4076 49.6614 85.9868C60.6039 86.4247 71.554 86.6478 82.5052 86.6559C92.4566 86.6559 101.369 86.4484 107.793 86.2409ZM50.2805 102.141C50.3231 102.666 50.3652 103.16 50.4067 103.621C50.6055 105.82 52.2621 107.472 54.6431 107.667C60.1211 108.115 69.2805 108.627 82.526 108.627C95.7627 108.627 104.905 108.115 110.371 107.667C112.75 107.473 114.405 105.822 114.604 103.626C114.646 103.163 114.688 102.667 114.728 102.141C103.993 102.581 93.2496 102.805 82.5052 102.812C71.7608 102.805 61.0158 102.581 50.2805 102.141Z" fill="#DB9807"/>
</svg>
