<svg width="164" height="164" viewBox="0 0 164 164" fill="none" xmlns="http://www.w3.org/2000/svg">
<circle cx="82" cy="82" r="80" fill="white" stroke="#DB9807" stroke-width="4"/>
<path d="M54.12 63.83L56.33 61.5775C58.795 59.1125 62.875 59.1125 65.425 61.7475L65.51 61.875C67.5925 64 70.355 65.02 73.3725 65.3175C77.495 65.7 81.49 67.91 84.125 71.905C87.015 76.495 86.9725 82.615 83.955 87.1625C82.8169 88.9623 81.2864 90.4813 79.478 91.6059C77.6697 92.7304 75.6304 93.4314 73.5129 93.6562C71.3953 93.881 69.2543 93.624 67.2502 92.9042C65.2461 92.1845 63.4307 91.0207 61.94 89.5C59.56 87.1625 58.2 84.145 57.86 81C57.52 77.8975 56.2875 74.965 54.12 72.7975C51.655 70.375 51.655 66.295 54.12 63.83ZM71.97 98C66.9975 98 62.365 96.0875 58.9225 92.56C55.9475 89.5 54.0775 85.675 53.61 81.51C53.4825 80.235 53.1 78.5775 52.08 77.0475C49.53 80.575 48 84.825 48 89.5C48 96.47 51.4 102.632 56.6275 106.5H111.75V102.25C111.75 86.95 101.592 73.9875 87.695 69.7375C91.4775 75.6875 91.3925 83.635 87.525 89.5C84.125 94.8125 78.26 98 71.97 98ZM93.815 62.13H99.2125C102.91 62.13 106.14 64.7225 106.14 69.355V72.5H111.452V68.25C111.452 61.875 105.8 57.03 99.2125 57.03H93.815C90.2875 57.03 87.27 53.545 87.27 49.975C87.27 46.405 90.2875 43.77 93.815 43.77V38.5C87.27 38.5 82 43.77 82 50.315C82 56.86 87.27 62.13 93.815 62.13ZM50.125 62.0875C50.38 61.6625 50.72 61.2375 51.1025 60.8125L53.3125 58.6025C53.695 58.22 54.12 57.9225 54.545 57.625L48.5525 51.5475C49.1475 50.4 48.935 48.9125 48 47.935C47.3914 47.3426 46.5756 47.0111 45.7262 47.0111C44.8769 47.0111 44.0611 47.3426 43.4525 47.935C42.8575 48.53 42.56 49.2525 42.5175 50.0175C41.7525 50.06 41.03 50.3575 40.435 50.9525C39.2025 52.185 39.2025 54.225 40.435 55.5C41.4125 56.435 42.8575 56.6475 44.0475 56.0525L50.125 62.0875ZM109.157 48.6575C111.325 46.49 112.685 43.5575 112.685 40.285H107.372C107.372 43.8125 104.397 46.7875 100.87 46.7875V52.0575C108.775 52.0575 114.98 58.5175 114.98 66.4225V76.75H120.25V66.4225C120.271 62.7153 119.24 59.0781 117.277 55.9334C115.313 52.7888 112.498 50.2658 109.157 48.6575ZM52.25 119.25H111.75C116.467 119.25 120.25 115.467 120.25 110.75H43.75C43.75 113.004 44.6455 115.166 46.2396 116.76C47.8336 118.354 49.9957 119.25 52.25 119.25Z" fill="#DB9807"/>
</svg>
