<svg width="164" height="164" viewBox="0 0 164 164" fill="none" xmlns="http://www.w3.org/2000/svg">
<circle cx="82" cy="82" r="80" fill="white" stroke="#DB9807" stroke-width="4"/>
<path d="M91.1207 50.4505L84.4897 46.5252C83.59 45.9876 82.5616 45.7037 81.5136 45.7037C80.4656 45.7037 79.4371 45.9876 78.5375 46.5252L71.904 50.4505H68.1515C65.9324 50.4496 63.7366 50.9033 61.6997 51.7837C59.6627 52.6642 57.8278 53.9526 56.308 55.5695C54.7882 57.1865 53.6158 59.0977 52.8631 61.1852C52.1105 63.2727 51.7935 65.4923 51.9318 67.7071L51.9022 67.7145V74.0345C51.9022 74.6237 51.9326 75.2047 51.9935 75.7774C49.6141 78.0074 47.7183 80.7026 46.4239 83.6958C45.1294 86.6889 44.464 89.9161 44.4687 93.1772C44.4678 96.307 45.0835 99.4063 46.2808 102.298C47.478 105.19 49.2334 107.817 51.4465 110.03C53.6596 112.243 56.287 113.999 59.1788 115.196C62.0705 116.393 65.1698 117.009 68.2996 117.008H94.7004C107.854 117.008 118.531 106.565 118.531 93.1772C118.531 86.2079 115.643 80.0262 111.014 75.7034C111.07 75.1553 111.098 74.6007 111.098 74.0394V67.717L111.066 67.7071C111.087 67.3746 111.098 67.0397 111.098 66.7023C111.123 57.7383 103.835 50.453 94.8707 50.453L91.1207 50.4505ZM93.9351 52.9193H94.8732C96.6812 52.9196 98.4715 53.2763 100.142 53.9689C101.812 54.6616 103.329 55.6766 104.606 56.956C105.884 58.2354 106.897 59.754 107.587 61.4251C108.277 63.0962 108.631 64.8869 108.629 66.6949V66.6999C108.63 68.5099 108.274 70.3024 107.581 71.9748C106.889 73.6472 105.873 75.1667 104.593 76.4465C103.313 77.7263 101.794 78.7413 100.121 79.4335C98.4487 80.1256 96.6561 80.4814 94.8461 80.4804H91.5873V82.4307C91.5844 83.0148 91.4658 83.5926 91.2383 84.1305C91.0107 84.6685 90.6788 85.156 90.2616 85.5649C89.8445 85.9737 89.3504 86.2959 88.808 86.5126C88.2656 86.7293 87.6856 86.8364 87.1016 86.8276H87.0843C84.6205 86.7585 82.7714 84.6896 82.7714 82.3098V80.4829H79.9076V90.2838H94.8485C98.5622 90.2858 102.164 89.0152 105.055 86.6838C107.946 84.3524 109.95 81.1009 110.735 77.471C110.979 78.5951 111.099 79.7554 111.098 80.9519C111.098 83.086 110.679 85.1993 109.862 87.1711C109.046 89.1428 107.849 90.9344 106.34 92.4434C104.831 93.9524 103.039 95.1493 101.068 95.9657C99.0959 96.7821 96.9826 97.2019 94.8485 97.2013H68.1515C65.7235 97.2028 63.326 96.66 61.1355 95.6129C58.9449 94.5657 57.0169 93.0409 55.4933 91.1504C53.9698 89.26 52.8893 87.052 52.3315 84.689C51.7737 82.326 51.7527 79.8679 52.27 77.4957C53.0609 81.1194 55.0673 84.3635 57.9562 86.6897C60.845 89.0159 64.4425 90.2841 68.1515 90.2838H71.0893V80.4829H68.1515C66.3412 80.4839 64.5484 80.128 62.8758 79.4357C61.2031 78.7434 59.6833 77.7282 58.4032 76.4481C57.1232 75.168 56.1079 73.6482 55.4156 71.9755C54.7233 70.3029 54.3675 68.5101 54.3684 66.6999C54.3678 64.89 54.7238 63.0977 55.4161 61.4255C56.1084 59.7533 57.1234 58.2339 58.4032 56.9541C59.683 55.6743 61.2024 54.6593 62.8746 53.967C64.5469 53.2746 66.3391 52.9186 68.149 52.9193H69.0797C68.8162 53.4501 68.6682 54.0306 68.6452 54.6227V59.8713C67.5661 60.591 66.6814 61.5661 66.0699 62.71C65.4583 63.8539 65.1387 65.1312 65.1396 66.4283C65.1396 69.9956 67.5096 73.0273 70.7733 73.9876L70.7832 73.9901C71.5888 74.2405 72.293 74.7424 72.7928 75.4221C73.2926 76.1017 73.5616 76.9236 73.5605 77.7673V92.1132C73.5605 93.2365 74.4246 94.1301 75.4614 94.1622C75.7176 94.1655 75.9718 94.1183 76.2097 94.0233C76.4476 93.9282 76.6644 93.7873 76.8478 93.6085C77.0312 93.4297 77.1776 93.2165 77.2786 92.9811C77.3796 92.7457 77.4332 92.4927 77.4364 92.2366V78.2339C77.4364 76.0712 79.1769 74.3332 81.3395 74.3332C83.5022 74.3332 85.2401 76.0712 85.2401 78.2339V82.3073C85.2401 83.433 86.1042 84.3243 87.1436 84.3588C87.3997 84.3621 87.6539 84.3149 87.8918 84.2199C88.1297 84.1248 88.3465 83.9839 88.5299 83.8051C88.7133 83.6263 88.8597 83.4131 88.9607 83.1777C89.0617 82.9423 89.1153 82.6893 89.1186 82.4332V77.8907C89.1186 76.1453 90.2591 74.5529 92.007 74.0789L92.0218 74.074C93.7078 73.6349 95.2006 72.6491 96.2665 71.271C97.3323 69.8928 97.9111 68.2001 97.9122 66.4579C97.9069 65.1562 97.5819 63.8758 96.9659 62.729C96.3499 61.5823 95.4618 60.6044 94.3795 59.8812V54.6227C94.3792 54.5457 94.3718 54.4688 94.3572 54.3931C94.309 53.8803 94.1642 53.3807 93.9351 52.9193ZM71.1164 58.7036L78.5375 63.0955C79.4374 63.6336 80.4663 63.9177 81.5148 63.9177C82.5633 63.9177 83.5922 63.6336 84.4921 63.0955L91.9107 58.7011V59.8096C91.9099 60.1194 91.8282 60.4236 91.6736 60.6921C91.519 60.9606 91.2969 61.184 91.0294 61.3402L83.2281 65.9592L83.2207 65.9617C82.7026 66.2712 82.1102 66.4342 81.5067 66.4333C80.9032 66.4325 80.3113 66.2677 79.7941 65.9568L71.9928 61.3402L71.978 61.3303C71.7117 61.1766 71.4913 60.9547 71.3394 60.6873C71.1875 60.42 71.1097 60.117 71.114 59.8096L71.1164 58.7036ZM79.799 48.6484C80.3172 48.3372 80.9103 48.1728 81.5148 48.1728C82.1193 48.1728 82.7124 48.3372 83.2306 48.6484L91.0318 53.2649C91.3105 53.4308 91.5392 53.6688 91.6939 53.9539C91.8486 54.2389 91.9235 54.5604 91.9107 54.8844C91.9047 55.1834 91.8213 55.4756 91.6685 55.7327C91.5158 55.9897 91.299 56.2027 91.0392 56.3509L83.2281 60.9724L83.2182 60.9798C82.1814 61.6044 80.8655 61.6093 79.7916 60.9724L71.9904 56.3558C71.7315 56.2037 71.5154 55.9886 71.3621 55.7305C71.2089 55.4723 71.1235 55.1795 71.114 54.8795C71.0968 54.5569 71.1691 54.2359 71.3229 53.9519C71.4767 53.6678 71.706 53.4318 71.9854 53.2699L79.799 48.6484ZM51.8997 83.7713V88.2595C51.899 90.3937 52.319 92.5072 53.1355 94.4791C53.952 96.451 55.1491 98.2427 56.6584 99.7518C58.1677 101.261 59.9596 102.458 61.9316 103.274C63.9036 104.09 66.0172 104.51 68.1515 104.509H94.8485C96.9826 104.509 99.0959 104.09 101.068 103.273C103.039 102.457 104.831 101.26 106.34 99.7509C107.849 98.2419 109.046 96.4503 109.862 94.4786C110.679 92.5068 111.098 90.3935 111.098 88.2595V83.6676C112.749 86.5637 113.61 89.8433 113.594 93.1772C113.594 103.808 105.158 112.071 94.7004 112.071H68.2996C65.8182 112.072 63.361 111.583 61.0683 110.634C58.7756 109.685 56.6924 108.294 54.9378 106.539C53.1832 104.784 51.7916 102.701 50.8424 100.409C49.8933 98.1158 49.4053 95.6586 49.4062 93.1772C49.4062 89.7555 50.3147 86.5461 51.8997 83.7762" fill="#DB9807"/>
</svg>
