<svg width="164" height="164" viewBox="0 0 164 164" fill="none" xmlns="http://www.w3.org/2000/svg">
<circle cx="82" cy="82" r="80" fill="white" stroke="#DB9807" stroke-width="4"/>
<path d="M111.125 103.225V80.4166C111.125 68.0038 111.125 61.7957 107.267 57.9411C103.409 54.0866 97.2045 54.0833 84.7917 54.0833H81.5C69.0871 54.0833 62.879 54.0833 59.0245 57.9411C55.1699 61.799 55.1667 68.0038 55.1667 80.4166V111.687" stroke="#DB9807" stroke-width="4.5" stroke-linecap="round"/>
<path d="M111.125 103.458H63.3958C61.2133 103.458 59.1202 104.325 57.5769 105.869C56.0337 107.412 55.1667 109.505 55.1667 111.687C55.1667 113.87 56.0337 115.963 57.5769 117.506C59.1202 119.05 61.2133 119.917 63.3958 119.917H111.125" stroke="#DB9807" stroke-width="4.5" stroke-linecap="round"/>
<path d="M111.125 119.917C108.942 119.917 106.849 119.05 105.306 117.506C103.763 115.963 102.896 113.87 102.896 111.687C102.896 109.505 103.763 107.412 105.306 105.869C106.849 104.325 108.942 103.458 111.125 103.458" stroke="#DB9807" stroke-width="4.5" stroke-linecap="round"/>
<path d="M89.3605 70.0479C90.4398 69.3139 91.7156 68.9227 93.0208 68.9254C96.6581 68.9254 99.6042 71.8978 99.6042 75.5647C99.6042 79.1757 96.6285 82.1941 93.0208 82.1941V85.3541C93.0208 88.4582 93.0208 90.0085 92.0564 90.973C91.0919 91.9375 89.5415 91.9375 86.4375 91.9375H79.8542C76.7501 91.9375 75.1998 91.9375 74.2353 90.973C73.2708 90.0085 73.2708 88.4582 73.2708 85.3541V82.6056C69.4262 82.6056 66.6875 79.7418 66.6875 75.5647C66.6875 71.8978 69.6335 68.9254 73.2708 68.9254C74.627 68.9254 75.8844 69.3369 76.9312 70.0446C77.3768 68.7501 78.2148 67.6268 79.3287 66.8309C80.4426 66.0351 81.7768 65.6062 83.1458 65.6041C86.0162 65.6041 88.4586 67.4573 89.3605 70.0479ZM89.3605 70.0479C89.6019 70.7369 89.7248 71.4699 89.7292 72.2467" stroke="#DB9807" stroke-width="4.5" stroke-linecap="round" stroke-linejoin="round"/>
</svg>
