<svg width="164" height="164" viewBox="0 0 164 164" fill="none" xmlns="http://www.w3.org/2000/svg">
<circle cx="82" cy="82" r="80" fill="white" stroke="#DB9807" stroke-width="4"/>
<path d="M120.012 83.1725C120.012 81.9561 119.715 80.6436 119.036 79.3182C119.202 78.767 119.321 78.2107 119.412 77.653C119.71 77.4754 120.002 77.2575 120.262 76.9683C122 75.032 121.378 71.2646 120.853 69.1909C120.799 68.984 120.717 68.7854 120.609 68.6008C120.77 68.0147 120.851 67.4021 120.853 66.7632C120.854 51.2292 103.649 38.5938 82.5 38.5938C61.3506 38.5938 44.1462 51.2292 44.1462 66.7632C44.1462 67.4012 44.2318 68.0147 44.3901 68.6008C44.2829 68.7843 44.2013 68.9815 44.1475 69.187C43.6223 71.2594 42.9998 75.0204 44.7298 76.954C44.901 77.9902 45.1889 79.0316 45.6273 80.0626C45.2171 81.0482 45.0009 82.1037 44.9905 83.1712C44.9905 84.162 45.0839 85.123 45.2538 86.062C44.6012 87.5915 44.2616 89.2364 44.2552 90.8993C44.2565 102.536 50.8913 116.406 82.5 116.406C114.109 116.406 120.744 102.536 120.744 90.9006C120.737 89.2382 120.398 87.5938 119.746 86.0646C119.917 85.1256 120.012 84.1633 120.012 83.1725ZM118.26 66.7632C118.26 73.3111 103.889 77.7101 82.5 77.7101C61.1107 77.7101 46.74 73.3098 46.74 66.7632C46.74 52.6143 62.7823 41.1045 82.5 41.1045C102.218 41.1045 118.26 52.6143 118.26 66.7632ZM82.5 113.896C58.8437 113.896 46.8489 106.16 46.8489 90.9006C46.8489 90.7605 46.852 90.6201 46.858 90.4791C51.6772 100.124 63.6396 105.007 82.5013 105.007C101.362 105.007 113.322 100.125 118.142 90.483C118.147 90.6222 118.15 90.7614 118.15 90.9006C118.15 106.161 106.156 113.896 82.5 113.896ZM118.101 82.4359L118.086 82.4087L118.023 82.6434C114.905 90.3494 105.115 95.6835 86.0184 96.2606L79.7079 102.448C79.5211 102.444 79.3253 102.444 79.1398 102.439L72.1925 95.8132C57.5676 94.2958 49.7384 89.4053 46.9929 82.7005L46.9138 82.41L46.8904 82.4593C46.8619 82.3853 46.8256 82.3153 46.7984 82.2414C48.8552 85.4628 52.4151 88.4923 57.9956 90.8682C62.3738 92.7331 66.2567 93.4593 69.6246 93.3634L64.2452 88.2329C62.548 87.7983 60.8873 87.232 59.2782 86.5392C57.3641 85.7337 55.5318 84.7461 53.8067 83.5901C54.2294 83.7406 54.6717 83.843 55.1554 83.843C56.1877 83.843 57.1863 83.4916 58.0669 83.1803C58.3341 83.0869 58.7153 82.9521 59.0188 82.8665C59.1537 83.1038 59.3041 83.3969 59.4182 83.6225C60.0641 84.8883 60.946 86.6183 62.8018 87.1526C63.139 87.2477 63.4878 87.2957 63.8484 87.2966C65.201 87.2966 66.3669 86.6209 67.3953 86.0257C67.6391 85.883 67.9634 85.6962 68.2292 85.5627C68.4017 85.7741 68.5962 86.0399 68.7454 86.2435C69.5767 87.3718 70.7153 88.9177 72.5945 89.1628C72.7562 89.1844 72.917 89.1948 73.0769 89.1939C74.6825 89.1939 75.9521 88.1888 76.9727 87.3796C77.188 87.2084 77.4694 86.984 77.7068 86.8155C77.9078 87.0048 78.1399 87.2434 78.3189 87.4276C79.3434 88.4819 80.6196 89.797 82.5013 89.797C84.3831 89.797 85.6579 88.4832 86.6837 87.4276C86.8627 87.2434 87.0936 87.0048 87.2959 86.8155C87.5345 86.984 87.8146 87.2084 88.0299 87.3783C89.0492 88.1875 90.3202 89.1939 91.9257 89.1939C92.0865 89.1939 92.2465 89.184 92.4056 89.1641C92.8348 89.1078 93.2516 88.9802 93.6389 88.7867L90.5705 91.7967C93.906 92.5736 97.9536 92.6086 102.769 91.5568C112.31 89.474 117.173 84.8183 118.883 79.7656C118.706 80.6782 118.444 81.5721 118.101 82.4359ZM48.3144 78.2963L48.4882 78.2976C48.7865 78.2976 49.0977 78.2859 49.4116 78.2768C49.6718 78.2647 49.9303 78.2578 50.1871 78.2561C50.3168 78.2561 50.4248 78.2587 50.5113 78.2639C50.5891 78.5245 50.6695 78.8578 50.7305 79.112C50.9639 80.0756 51.2674 81.2765 51.9897 82.244C50.4633 80.9899 49.243 79.6645 48.3144 78.2963ZM94.487 88.2316C95.2081 87.6506 95.7684 86.9036 96.2573 86.2409C96.409 86.0373 96.6048 85.7715 96.776 85.5601C97.0406 85.695 97.3622 85.8804 97.6073 86.0231C98.6344 86.6196 99.7977 87.294 101.152 87.294C101.51 87.294 101.862 87.2447 102.198 87.1501C104.054 86.6157 104.937 84.8844 105.582 83.6187C105.697 83.393 105.846 83.1012 105.981 82.8652C106.285 82.9495 106.667 83.0856 106.933 83.179C107.815 83.489 108.812 83.8417 109.846 83.8417C110.133 83.8417 110.404 83.8015 110.671 83.7483C108.227 85.3163 105.112 86.6054 101.201 87.4587C98.996 87.9495 96.7458 88.2086 94.487 88.2316ZM113.407 81.6241C113.852 80.7954 114.082 79.8824 114.267 79.1172C114.328 78.8643 114.408 78.5297 114.485 78.2703C114.57 78.2652 114.675 78.2626 114.803 78.2626C115.059 78.2626 115.323 78.2729 115.585 78.2807L116.093 78.2937C115.358 79.5241 114.454 80.6452 113.407 81.6241ZM118.391 75.2914C118.016 75.7077 117.315 75.7933 116.517 75.7933C115.967 75.7933 115.369 75.7531 114.805 75.7531C114.039 75.7531 113.327 75.827 112.855 76.172C111.655 77.05 111.956 80.427 110.505 81.1896C110.312 81.2895 110.091 81.3323 109.847 81.3323C108.627 81.3323 106.871 80.2727 105.578 80.2714C105.365 80.2672 105.153 80.3033 104.954 80.3778C103.546 80.9302 103.052 84.293 101.502 84.7379C101.388 84.7692 101.271 84.7849 101.153 84.7845C99.7887 84.7845 97.9173 82.8885 96.4907 82.8885C96.3939 82.8885 96.2983 82.8976 96.2041 82.9157C94.7049 83.2192 93.6661 86.4627 92.08 86.6715C92.0282 86.6767 91.9767 86.6797 91.9257 86.6806C90.4564 86.6806 88.7069 84.1076 87.1869 84.1076L87.1052 84.1102C85.5645 84.2074 84.0939 87.2836 82.5026 87.2836C80.9101 87.2836 79.442 84.2074 77.9013 84.1102L77.8183 84.1076C76.2984 84.1076 74.5476 86.6806 73.0795 86.6806C73.0279 86.6806 72.9764 86.6776 72.9252 86.6715C71.3391 86.4627 70.3042 83.2192 68.8011 82.9157C68.7069 82.8961 68.6108 82.8869 68.5145 82.8885C67.088 82.8885 65.2153 84.7845 63.8497 84.7845C63.7318 84.7849 63.6144 84.7692 63.5008 84.7379C61.9497 84.2917 61.4556 80.9276 60.0459 80.3778C59.8466 80.3033 59.6349 80.2672 59.4221 80.2714C58.1304 80.2714 56.3771 81.331 55.1567 81.331C54.9129 81.331 54.6898 81.2882 54.4953 81.187C53.0454 80.4219 53.3424 77.0448 52.1467 76.1694C51.6707 75.8205 50.9561 75.7479 50.1884 75.7479C49.6255 75.7479 49.0342 75.7881 48.4882 75.7881C47.6867 75.7881 46.9825 75.7038 46.6077 75.2836C46.0163 74.6248 46.0565 73.0932 46.2199 71.8158C51.7602 77.9163 67.5419 80.2195 82.5013 80.2195C97.4608 80.2195 113.242 77.9163 118.781 71.8158C118.945 73.0958 118.984 74.63 118.391 75.2914Z" fill="#DB9807"/>
<path d="M60.4233 56.1924L58.4598 54.3093L56.4964 56.1924L58.4598 58.0741L60.4233 56.1924ZM68.1397 54.9811L70.1019 53.098L68.1397 51.215L66.1762 53.098L68.1397 54.9811ZM75.5954 61.695L73.6333 59.8119L71.6698 61.695L73.6333 63.5768L75.5954 61.695ZM82.382 54.9383L81.0747 53.6829L79.7649 54.9383L81.0747 56.1924L82.382 54.9383ZM104.089 59.8119L105.399 61.066L106.709 59.8119L105.399 58.5579L104.089 59.8119ZM114.656 61.066L113.347 59.8119L112.038 61.066L113.347 62.3214L114.656 61.066ZM99.5357 51.8426L98.2285 50.5873L96.9186 51.8426L98.2285 53.098L99.5357 51.8426ZM59.9447 50.2747L58.6375 49.0194L57.3277 50.2747L58.6375 51.5301L59.9447 50.2747ZM52.9624 56.1924L51.6538 54.9383L50.3453 56.1924L51.6538 57.4477L52.9624 56.1924ZM58.4598 64.4794L59.7697 65.7348L61.0769 64.4794L59.7697 63.224L58.4598 64.4794ZM76.2491 45.2545L74.9418 43.9991L73.6333 45.2545L74.9418 46.5099L76.2491 45.2545ZM88.6031 43.9991L87.2958 42.7438L85.986 43.9991L87.2958 45.2545L88.6031 43.9991ZM68.1384 46.5099L66.8312 45.2545L65.5226 46.5099L66.8312 47.764L68.1384 46.5099ZM105.313 49.4888L104.006 48.2347L102.696 49.4888L104.006 50.7442L105.313 49.4888ZM89.2593 67.1419L91.2215 65.2588L89.2593 63.3758L87.2945 65.2588L89.2593 67.1419ZM88.1466 55.6075L86.1844 53.7257L84.2209 55.6075L86.1844 57.4905L88.1466 55.6075ZM95.3793 48.3917L93.4171 46.5099L91.4523 48.3917L93.4171 50.2747L95.3793 48.3917ZM97.1119 56.4466L99.0741 58.3296L101.038 56.4466L99.0741 54.5635L97.1119 56.4466ZM109.326 53.7257L107.362 51.8426L105.399 53.7257L107.362 55.6075L109.326 53.7257ZM101.038 66.6322L103.001 64.7504L101.038 62.8674L99.0741 64.7504L101.038 66.6322ZM51.6525 61.4927L53.6173 63.3758L55.5795 61.4927L53.6173 59.6109L51.6525 61.4927Z" fill="#DB9807"/>
</svg>
